<svg width="24" height="24" viewBox="0 0 24 24" fill="none" xmlns="http://www.w3.org/2000/svg">
<path d="M12.3635 2H12.6307C14.0018 2.02734 15.3643 2.43203 16.5193 3.17344C17.6291 3.87891 18.5475 4.88164 19.1529 6.04922C19.7951 7.28125 20.0865 8.69609 19.9709 10.0813C19.8213 11.6863 19.1842 13.1988 18.4236 14.6035C17.6686 15.9812 16.7635 17.2715 15.7869 18.5C14.9014 19.6082 13.9572 20.6707 12.9549 21.6746C12.826 21.7891 12.7236 21.9484 12.5502 22H12.4576C12.3924 21.9809 12.3268 21.9562 12.2783 21.9066C11.5314 21.1816 10.8271 20.4133 10.1443 19.6277C8.71894 17.9648 7.40176 16.1934 6.38301 14.2492C5.81308 13.1445 5.33457 11.9785 5.11426 10.7496C4.86113 9.36992 5.03496 7.92109 5.57246 6.62773C6.11777 5.31172 7.04902 4.15977 8.21855 3.34687C9.42637 2.49922 10.8893 2.03086 12.3635 2ZM12.0494 6.09297C10.89 6.23555 9.83848 7.01797 9.36621 8.08555C9.03926 8.80508 8.97246 9.63828 9.18183 10.4C9.3709 11.1008 9.78887 11.7371 10.358 12.1875C10.9189 12.6355 11.6236 12.9012 12.3416 12.932C13.1092 12.9711 13.8873 12.7391 14.5088 12.2863C15.1193 11.8473 15.5791 11.202 15.7924 10.4805C16.0131 9.74531 15.9752 8.93594 15.6885 8.22422C15.4072 7.51484 14.8811 6.90625 14.2197 6.52578C13.5697 6.14844 12.7943 5.99258 12.0494 6.09297Z" fill="black" fill-opacity="0.54"/>
</svg>
