<svg width="64" height="46" viewBox="0 0 64 46" fill="none" xmlns="http://www.w3.org/2000/svg">
<g clip-path="url(#clip0_115_18548)">
<path d="M33.114 2.70777C29.9445 -0.560423 25.1931 -1.13236 20.588 2.44223C16.6202 5.52367 14.4156 9.10701 8.06488 9.15661C-16.1948 9.34337 -14.5603 25.2787 -8.75051 34.6689C-0.411528 48.1502 -3.41146 52.7636 -3.65707 61.8942C-3.82958 68.2759 -3.37929 73.47 1.24048 78.6874C8.15845 86.5019 18.3658 85.749 25.1288 80.1143C28.4504 77.348 31.6608 73.8085 33.7573 71.795C39.3887 66.3879 42.2132 65.352 51.1136 60.8466C68.2974 51.7832 67.5781 35.6582 53.2013 29.8221C40.8945 24.8264 39.9998 24.6163 37.8332 14.7009C36.9239 10.5368 36.7396 6.44577 33.114 2.70777Z" fill="#E6F1FF"/>
</g>
<defs>
<clipPath id="clip0_115_18548">
<rect width="64" height="46" rx="8" fill="white"/>
</clipPath>
</defs>
</svg>
