<svg width="40" height="40" viewBox="0 0 40 40" fill="none" xmlns="http://www.w3.org/2000/svg">
<g clip-path="url(#clip0_115_18740)">
<path d="M9.50114 6.875H2.99888L1.97997 5.34664C1.85208 5.15484 1.84021 4.90828 1.94895 4.70508C2.0577 4.50187 2.2695 4.375 2.49997 4.375H9.99997C10.2304 4.375 10.4422 4.50187 10.5511 4.70508C10.6598 4.90828 10.6479 5.15492 10.5201 5.34664L9.50114 6.875Z" fill="#555A6E"/>
<path d="M10 14.375H2.5V28.75H10V14.375Z" fill="#E1322D"/>
<path d="M10 15.625H6.45836V28.75H10V15.625Z" fill="#F04B37"/>
<path d="M31.875 8.90625C31.9105 8.90625 31.9455 8.90867 31.9803 8.91156C32.2362 8.18062 32.9317 7.65625 33.75 7.65625C34.6388 7.65625 35.3826 8.27484 35.5757 9.10477C35.7704 8.97969 36.0014 8.90625 36.25 8.90625C36.9404 8.90625 37.5 9.46586 37.5 10.1562C37.5 10.3573 37.4514 10.5466 37.3671 10.7148L38.75 11.4062H31.875C31.1846 11.4062 30.625 10.8466 30.625 10.1562C30.625 9.46586 31.1846 8.90625 31.875 8.90625Z" fill="#5AD7FF"/>
<path d="M2.5 35H37.5C38.1904 35 38.75 34.4404 38.75 33.75V30C38.75 29.3096 38.1904 28.75 37.5 28.75H2.5C1.80961 28.75 1.25 29.3096 1.25 30V33.75C1.25 34.4404 1.80961 35 2.5 35Z" fill="#463C4B"/>
<path d="M1.25 32.5H38.75V30C38.75 29.3096 38.1904 28.75 37.5 28.75H2.5C1.80961 28.75 1.25 29.3096 1.25 30V32.5Z" fill="#555A6E"/>
<path d="M11.25 13.125H1.25V7.5C1.25 7.15484 1.52984 6.875 1.875 6.875H10.625C10.9702 6.875 11.25 7.15484 11.25 7.5V13.125Z" fill="#D7E6F0"/>
<path d="M11.25 13.125L10 14.375H2.5L1.25 13.125H11.25Z" fill="#A5C3DC"/>
<path d="M5.625 3.125H6.875C7.22016 3.125 7.5 3.40484 7.5 3.75V4.375H5V3.75C5 3.40484 5.27984 3.125 5.625 3.125Z" fill="#5AD7FF"/>
<path d="M10.334 5.625L9.5007 6.875H2.99836L2.16508 5.625H10.334Z" fill="#463C4B"/>
<path d="M6.45801 7.5H1.24965V13.125H6.45801V7.5Z" fill="#A5C3DC"/>
<path d="M11.25 8.125H1.25V9.375H11.25V8.125Z" fill="#5AD7FF"/>
<path d="M6.45801 8.125H1.24965V9.375H6.45801V8.125Z" fill="#23AAE6"/>
<path d="M11.25 10.625H1.25V11.875H11.25V10.625Z" fill="#5AD7FF"/>
<path d="M6.45801 10.625H1.24965V11.875H6.45801V10.625Z" fill="#23AAE6"/>
<path d="M18.9062 34.4531H21.4062C22.787 34.4531 23.9062 33.3338 23.9062 31.9531C23.9062 30.5724 22.787 29.4531 21.4062 29.4531H18.9062C17.5255 29.4531 16.4062 30.5724 16.4062 31.9531C16.4062 33.3338 17.5255 34.4531 18.9062 34.4531Z" fill="#463C4B"/>
<path d="M21.4062 34.4531C20.0255 34.4531 18.9062 33.3338 18.9062 31.9531C18.9062 30.5724 20.0255 29.4531 21.4062 29.4531C22.787 29.4531 23.9062 30.5724 23.9062 31.9531C23.9062 33.3338 22.787 34.4531 21.4062 34.4531Z" fill="#555A6E"/>
<path d="M21.4062 33.2031C20.7159 33.2031 20.1562 32.6435 20.1562 31.9531C20.1562 31.2628 20.7159 30.7031 21.4062 30.7031C22.0966 30.7031 22.6562 31.2628 22.6562 31.9531C22.6562 32.6435 22.0966 33.2031 21.4062 33.2031Z" fill="#D7E6F0"/>
<path d="M31.4062 34.4531H33.9062C35.287 34.4531 36.4062 33.3338 36.4062 31.9531C36.4062 30.5724 35.287 29.4531 33.9062 29.4531H31.4062C30.0255 29.4531 28.9062 30.5724 28.9062 31.9531C28.9062 33.3338 30.0255 34.4531 31.4062 34.4531Z" fill="#463C4B"/>
<path d="M16.4062 31.9531H51.4062C52.0966 31.9531 52.6562 31.3935 52.6562 30.7031V16.9531C52.6562 15.5724 51.537 14.4531 50.1562 14.4531H17.6562C16.2755 14.4531 15.1562 15.5724 15.1562 16.9531V30.7031C15.1562 31.3935 15.7159 31.9531 16.4062 31.9531Z" fill="#23AAE6"/>
<path d="M28.9062 31.9531H51.4062C52.0966 31.9531 52.6562 31.3935 52.6562 30.7031V16.9531C52.6562 15.5724 51.537 14.4531 50.1562 14.4531H30.1562C28.7755 14.4531 27.6562 15.5724 27.6562 16.9531V30.7031C27.6562 31.3935 28.2159 31.9531 28.9062 31.9531Z" fill="#5AD7FF"/>
<path d="M27.6562 16.9531H15.1562V26.9531H27.6562V16.9531Z" fill="#463C4B"/>
<path d="M52.6562 16.9531V23.2031H33.2812C32.2457 23.2031 31.4062 24.0426 31.4062 25.0781C31.4062 26.1137 30.5668 26.9531 29.5312 26.9531H27.6562V16.9531H52.6562Z" fill="#555A6E"/>
<path d="M33.9062 34.4531C32.5255 34.4531 31.4062 33.3338 31.4062 31.9531C31.4062 30.5724 32.5255 29.4531 33.9062 29.4531C35.287 29.4531 36.4062 30.5724 36.4062 31.9531C36.4062 33.3338 35.287 34.4531 33.9062 34.4531Z" fill="#555A6E"/>
<path d="M33.9062 33.2031C33.2159 33.2031 32.6562 32.6435 32.6562 31.9531C32.6562 31.2628 33.2159 30.7031 33.9062 30.7031C34.5966 30.7031 35.1562 31.2628 35.1562 31.9531C35.1562 32.6435 34.5966 33.2031 33.9062 33.2031Z" fill="#D7E6F0"/>
<path d="M24.8438 30.0781H27.6562V28.2031H25.7812C25.0909 28.2031 24.5312 28.7627 24.5312 29.4531V29.7656C24.5312 29.9382 24.6712 30.0781 24.8438 30.0781Z" fill="#D7E6F0"/>
<path d="M17.9688 30.0781H15.1562V28.2031H17.0312C17.7216 28.2031 18.2812 28.7627 18.2812 29.4531V29.7656C18.2812 29.9382 18.1413 30.0781 17.9688 30.0781Z" fill="#D7E6F0"/>
</g>
<defs>
<clipPath id="clip0_115_18740">
<rect width="40" height="40" fill="white" transform="matrix(-1 0 0 1 40 0)"/>
</clipPath>
</defs>
</svg>
