<svg width="40" height="40" viewBox="0 0 40 40" fill="none" xmlns="http://www.w3.org/2000/svg">
<g clip-path="url(#clip0_115_18666)">
<path d="M30.4989 6.875H37.0011L38.02 5.34664C38.1479 5.15484 38.1598 4.90828 38.051 4.70508C37.9423 4.50187 37.7305 4.375 37.5 4.375H30C29.7696 4.375 29.5578 4.50187 29.4489 4.70508C29.3402 4.90828 29.3521 5.15492 29.4799 5.34664L30.4989 6.875Z" fill="#555A6E"/>
<path d="M30 14.375H37.5V28.75H30V14.375Z" fill="#E1322D"/>
<path d="M30 15.625H33.5416V28.75H30V15.625Z" fill="#F04B37"/>
<path d="M8.125 8.90625C8.08945 8.90625 8.05445 8.90867 8.01969 8.91156C7.76375 8.18062 7.06828 7.65625 6.25 7.65625C5.36125 7.65625 4.61742 8.27484 4.4243 9.10477C4.22961 8.97969 3.99859 8.90625 3.75 8.90625C3.05961 8.90625 2.5 9.46586 2.5 10.1562C2.5 10.3573 2.54859 10.5466 2.63289 10.7148L1.25 11.4062H8.125C8.81539 11.4062 9.375 10.8466 9.375 10.1562C9.375 9.46586 8.81539 8.90625 8.125 8.90625Z" fill="#5AD7FF"/>
<path d="M37.5 35H2.5C1.80961 35 1.25 34.4404 1.25 33.75V30C1.25 29.3096 1.80961 28.75 2.5 28.75H37.5C38.1904 28.75 38.75 29.3096 38.75 30V33.75C38.75 34.4404 38.1904 35 37.5 35Z" fill="#463C4B"/>
<path d="M38.75 32.5H1.25V30C1.25 29.3096 1.80961 28.75 2.5 28.75H37.5C38.1904 28.75 38.75 29.3096 38.75 30V32.5Z" fill="#555A6E"/>
<path d="M28.75 13.125H38.75V7.5C38.75 7.15484 38.4702 6.875 38.125 6.875H29.375C29.0298 6.875 28.75 7.15484 28.75 7.5V13.125Z" fill="#D7E6F0"/>
<path d="M28.75 13.125L30 14.375H37.5L38.75 13.125H28.75Z" fill="#A5C3DC"/>
<path d="M34.375 3.125H33.125C32.7798 3.125 32.5 3.40484 32.5 3.75V4.375H35V3.75C35 3.40484 34.7202 3.125 34.375 3.125Z" fill="#5AD7FF"/>
<path d="M29.666 5.625L30.4993 6.875H37.0016L37.8349 5.625H29.666Z" fill="#463C4B"/>
<path d="M33.542 7.5H38.7504V13.125H33.542V7.5Z" fill="#A5C3DC"/>
<path d="M28.75 8.125H38.75V9.375H28.75V8.125Z" fill="#5AD7FF"/>
<path d="M33.542 8.125H38.7504V9.375H33.542V8.125Z" fill="#23AAE6"/>
<path d="M28.75 10.625H38.75V11.875H28.75V10.625Z" fill="#5AD7FF"/>
<path d="M33.542 10.625H38.7504V11.875H33.542V10.625Z" fill="#23AAE6"/>
<path d="M21.0938 34.4531H18.5938C17.213 34.4531 16.0938 33.3338 16.0938 31.9531C16.0938 30.5724 17.213 29.4531 18.5938 29.4531H21.0938C22.4745 29.4531 23.5938 30.5724 23.5938 31.9531C23.5938 33.3338 22.4745 34.4531 21.0938 34.4531Z" fill="#463C4B"/>
<path d="M18.5938 34.4531C19.9745 34.4531 21.0938 33.3338 21.0938 31.9531C21.0938 30.5724 19.9745 29.4531 18.5938 29.4531C17.213 29.4531 16.0938 30.5724 16.0938 31.9531C16.0938 33.3338 17.213 34.4531 18.5938 34.4531Z" fill="#555A6E"/>
<path d="M18.5938 33.2031C19.2841 33.2031 19.8438 32.6435 19.8438 31.9531C19.8438 31.2628 19.2841 30.7031 18.5938 30.7031C17.9034 30.7031 17.3438 31.2628 17.3438 31.9531C17.3438 32.6435 17.9034 33.2031 18.5938 33.2031Z" fill="#D7E6F0"/>
<path d="M8.59375 34.4531H6.09375C4.71305 34.4531 3.59375 33.3338 3.59375 31.9531C3.59375 30.5724 4.71305 29.4531 6.09375 29.4531H8.59375C9.97445 29.4531 11.0938 30.5724 11.0938 31.9531C11.0938 33.3338 9.97445 34.4531 8.59375 34.4531Z" fill="#463C4B"/>
<path d="M23.5937 31.9531H-11.4063C-12.0966 31.9531 -12.6562 31.3935 -12.6562 30.7031V16.9531C-12.6562 15.5724 -11.537 14.4531 -10.1563 14.4531H22.3437C23.7244 14.4531 24.8437 15.5724 24.8437 16.9531V30.7031C24.8437 31.3935 24.2841 31.9531 23.5937 31.9531Z" fill="#23AAE6"/>
<path d="M11.0937 31.9531H-11.4063C-12.0966 31.9531 -12.6562 31.3935 -12.6562 30.7031V16.9531C-12.6562 15.5724 -11.537 14.4531 -10.1563 14.4531H9.84375C11.2245 14.4531 12.3437 15.5724 12.3437 16.9531V30.7031C12.3437 31.3935 11.7841 31.9531 11.0937 31.9531Z" fill="#5AD7FF"/>
<path d="M12.3438 16.9531H24.8437V26.9531H12.3438V16.9531Z" fill="#463C4B"/>
<path d="M-12.6562 16.9531V23.2031H6.71875C7.7543 23.2031 8.59375 24.0426 8.59375 25.0781C8.59375 26.1137 9.4332 26.9531 10.4687 26.9531H12.3437V16.9531H-12.6562Z" fill="#555A6E"/>
<path d="M6.09375 34.4531C7.47446 34.4531 8.59375 33.3338 8.59375 31.9531C8.59375 30.5724 7.47446 29.4531 6.09375 29.4531C4.71304 29.4531 3.59375 30.5724 3.59375 31.9531C3.59375 33.3338 4.71304 34.4531 6.09375 34.4531Z" fill="#555A6E"/>
<path d="M6.09375 33.2031C6.78411 33.2031 7.34375 32.6435 7.34375 31.9531C7.34375 31.2628 6.78411 30.7031 6.09375 30.7031C5.40339 30.7031 4.84375 31.2628 4.84375 31.9531C4.84375 32.6435 5.40339 33.2031 6.09375 33.2031Z" fill="#D7E6F0"/>
<path d="M15.1562 30.0781H12.3438V28.2031H14.2187C14.9091 28.2031 15.4687 28.7627 15.4687 29.4531V29.7656C15.4687 29.9382 15.3288 30.0781 15.1562 30.0781Z" fill="#D7E6F0"/>
<path d="M22.0312 30.0781H24.8437V28.2031H22.9687C22.2784 28.2031 21.7188 28.7627 21.7188 29.4531V29.7656C21.7188 29.9382 21.8587 30.0781 22.0312 30.0781Z" fill="#D7E6F0"/>
</g>
<defs>
<clipPath id="clip0_115_18666">
<rect width="40" height="40" fill="white"/>
</clipPath>
</defs>
</svg>
