<svg width="40" height="40" viewBox="0 0 40 40" fill="none" xmlns="http://www.w3.org/2000/svg">
<path d="M5 38.75H7.5C8.8807 38.75 10 37.6307 10 36.25C10 34.8693 8.8807 33.75 7.5 33.75H5C3.6193 33.75 2.5 34.8693 2.5 36.25C2.5 37.6307 3.6193 38.75 5 38.75Z" fill="#463C4B"/>
<path d="M7.5 38.75C6.11929 38.75 5 37.6307 5 36.25C5 34.8693 6.11929 33.75 7.5 33.75C8.88071 33.75 10 34.8693 10 36.25C10 37.6307 8.88071 38.75 7.5 38.75Z" fill="#555A6E"/>
<path d="M7.5 37.5C6.80964 37.5 6.25 36.9404 6.25 36.25C6.25 35.5596 6.80964 35 7.5 35C8.19036 35 8.75 35.5596 8.75 36.25C8.75 36.9404 8.19036 37.5 7.5 37.5Z" fill="#D7E6F0"/>
<path d="M17.5 38.75H20C21.3807 38.75 22.5 37.6307 22.5 36.25C22.5 34.8693 21.3807 33.75 20 33.75H17.5C16.1193 33.75 15 34.8693 15 36.25C15 37.6307 16.1193 38.75 17.5 38.75Z" fill="#463C4B"/>
<path d="M32.5 38.75H35C36.3807 38.75 37.5 37.6307 37.5 36.25C37.5 34.8693 36.3807 33.75 35 33.75H32.5C31.1193 33.75 30 34.8693 30 36.25C30 37.6307 31.1193 38.75 32.5 38.75Z" fill="#463C4B"/>
<path d="M2.5 36.25H37.5C38.1904 36.25 38.75 35.6904 38.75 35V21.25C38.75 19.8693 37.6307 18.75 36.25 18.75H3.75C2.3693 18.75 1.25 19.8693 1.25 21.25V35C1.25 35.6904 1.80961 36.25 2.5 36.25Z" fill="#23AAE6"/>
<path d="M15 36.25H37.5C38.1904 36.25 38.75 35.6904 38.75 35V21.25C38.75 19.8693 37.6307 18.75 36.25 18.75H16.25C14.8693 18.75 13.75 19.8693 13.75 21.25V35C13.75 35.6904 14.3096 36.25 15 36.25Z" fill="#5AD7FF"/>
<path d="M13.75 21.25H1.25V31.25H13.75V21.25Z" fill="#463C4B"/>
<path d="M38.75 21.25V27.5H19.375C18.3395 27.5 17.5 28.3395 17.5 29.375C17.5 30.4105 16.6605 31.25 15.625 31.25H13.75V21.25H38.75Z" fill="#555A6E"/>
<path d="M35 38.75C33.6193 38.75 32.5 37.6307 32.5 36.25C32.5 34.8693 33.6193 33.75 35 33.75C36.3807 33.75 37.5 34.8693 37.5 36.25C37.5 37.6307 36.3807 38.75 35 38.75Z" fill="#555A6E"/>
<path d="M35 37.5C34.3096 37.5 33.75 36.9404 33.75 36.25C33.75 35.5596 34.3096 35 35 35C35.6904 35 36.25 35.5596 36.25 36.25C36.25 36.9404 35.6904 37.5 35 37.5Z" fill="#D7E6F0"/>
<path d="M20 38.75C18.6193 38.75 17.5 37.6307 17.5 36.25C17.5 34.8693 18.6193 33.75 20 33.75C21.3807 33.75 22.5 34.8693 22.5 36.25C22.5 37.6307 21.3807 38.75 20 38.75Z" fill="#555A6E"/>
<path d="M20 37.5C19.3096 37.5 18.75 36.9404 18.75 36.25C18.75 35.5596 19.3096 35 20 35C20.6904 35 21.25 35.5596 21.25 36.25C21.25 36.9404 20.6904 37.5 20 37.5Z" fill="#D7E6F0"/>
<path d="M33.75 28.75H36.25C36.5952 28.75 36.875 29.0298 36.875 29.375C36.875 29.7202 36.5952 30 36.25 30H33.75C33.4048 30 33.125 29.7202 33.125 29.375C33.125 29.0298 33.4048 28.75 33.75 28.75Z" fill="#23AAE6"/>
<path d="M33.75 31.25H36.25C36.5952 31.25 36.875 31.5298 36.875 31.875C36.875 32.2202 36.5952 32.5 36.25 32.5H33.75C33.4048 32.5 33.125 32.2202 33.125 31.875C33.125 31.5298 33.4048 31.25 33.75 31.25Z" fill="#23AAE6"/>
<path d="M10.9375 34.375H13.75V32.5H11.875C11.1846 32.5 10.625 33.0596 10.625 33.75V34.0625C10.625 34.2351 10.7649 34.375 10.9375 34.375Z" fill="#D7E6F0"/>
<path d="M4.0625 34.375H1.25V32.5H3.125C3.81539 32.5 4.375 33.0596 4.375 33.75V34.0625C4.375 34.2351 4.23508 34.375 4.0625 34.375Z" fill="#D7E6F0"/>
<path d="M35.5469 10.4068C34.4828 10.4068 33.5797 11.0933 33.2546 12.0474H6.74547C6.42039 11.0933 5.51719 10.4067 4.45312 10.4067C3.11555 10.4067 2.03125 11.491 2.03125 12.8286C2.03125 14.1662 3.11555 15.2505 4.45312 15.2505C5.51719 15.2505 6.42031 14.5639 6.74547 13.6099H33.2545C33.5796 14.564 34.4827 15.2506 35.5469 15.2506C36.8845 15.2506 37.9688 14.1663 37.9688 12.8287C37.9688 11.4911 36.8845 10.4068 35.5469 10.4068Z" fill="#A5C3DC"/>
<path d="M35.5469 2.26562C37.5653 2.26562 39.2188 3.90531 39.2188 5.92789C39.2188 9.07258 35.5469 12.8287 35.5469 12.8287C35.5469 12.8287 31.875 9.07266 31.875 5.92789C31.875 3.90531 33.5284 2.26562 35.5469 2.26562Z" fill="#F06423"/>
<path d="M35.5469 8.61636C37.0177 8.61636 38.21 7.42159 38.21 5.94777C38.21 4.47394 37.0177 3.27917 35.5469 3.27917C34.0761 3.27917 32.8838 4.47394 32.8838 5.94777C32.8838 7.42159 34.0761 8.61636 35.5469 8.61636Z" fill="#EDEFF1"/>
<path d="M4.45312 2.26562C2.43469 2.26562 0.78125 3.90531 0.78125 5.92789C0.78125 9.07258 4.45312 12.8287 4.45312 12.8287C4.45312 12.8287 8.125 9.07266 8.125 5.92789C8.125 3.90531 6.47156 2.26562 4.45312 2.26562Z" fill="#FAA019"/>
<path d="M4.45316 8.61636C5.92397 8.61636 7.11629 7.42159 7.11629 5.94777C7.11629 4.47394 5.92397 3.27917 4.45316 3.27917C2.98236 3.27917 1.79004 4.47394 1.79004 5.94777C1.79004 7.42159 2.98236 8.61636 4.45316 8.61636Z" fill="#EDEFF1"/>
</svg>
