<svg width="40" height="40" viewBox="0 0 40 40" fill="none" xmlns="http://www.w3.org/2000/svg">
<path d="M35 38.75H32.5C31.1193 38.75 30 37.6307 30 36.25C30 34.8693 31.1193 33.75 32.5 33.75H35C36.3807 33.75 37.5 34.8693 37.5 36.25C37.5 37.6307 36.3807 38.75 35 38.75Z" fill="#463C4B"/>
<path d="M32.5 38.75C33.8807 38.75 35 37.6307 35 36.25C35 34.8693 33.8807 33.75 32.5 33.75C31.1193 33.75 30 34.8693 30 36.25C30 37.6307 31.1193 38.75 32.5 38.75Z" fill="#555A6E"/>
<path d="M32.5 37.5C33.1904 37.5 33.75 36.9404 33.75 36.25C33.75 35.5596 33.1904 35 32.5 35C31.8096 35 31.25 35.5596 31.25 36.25C31.25 36.9404 31.8096 37.5 32.5 37.5Z" fill="#D7E6F0"/>
<path d="M22.5 38.75H20C18.6193 38.75 17.5 37.6307 17.5 36.25C17.5 34.8693 18.6193 33.75 20 33.75H22.5C23.8807 33.75 25 34.8693 25 36.25C25 37.6307 23.8807 38.75 22.5 38.75Z" fill="#463C4B"/>
<path d="M7.5 38.75H5C3.6193 38.75 2.5 37.6307 2.5 36.25C2.5 34.8693 3.6193 33.75 5 33.75H7.5C8.8807 33.75 10 34.8693 10 36.25C10 37.6307 8.8807 38.75 7.5 38.75Z" fill="#463C4B"/>
<path d="M37.5 36.25H2.5C1.80961 36.25 1.25 35.6904 1.25 35V21.25C1.25 19.8693 2.3693 18.75 3.75 18.75H36.25C37.6307 18.75 38.75 19.8693 38.75 21.25V35C38.75 35.6904 38.1904 36.25 37.5 36.25Z" fill="#23AAE6"/>
<path d="M25 36.25H2.5C1.80961 36.25 1.25 35.6904 1.25 35V21.25C1.25 19.8693 2.3693 18.75 3.75 18.75H23.75C25.1307 18.75 26.25 19.8693 26.25 21.25V35C26.25 35.6904 25.6904 36.25 25 36.25Z" fill="#5AD7FF"/>
<path d="M26.25 21.25H38.75V31.25H26.25V21.25Z" fill="#463C4B"/>
<path d="M1.25 21.25V27.5H20.625C21.6605 27.5 22.5 28.3395 22.5 29.375C22.5 30.4105 23.3395 31.25 24.375 31.25H26.25V21.25H1.25Z" fill="#555A6E"/>
<path d="M5 38.75C6.38071 38.75 7.5 37.6307 7.5 36.25C7.5 34.8693 6.38071 33.75 5 33.75C3.61929 33.75 2.5 34.8693 2.5 36.25C2.5 37.6307 3.61929 38.75 5 38.75Z" fill="#555A6E"/>
<path d="M5 37.5C5.69036 37.5 6.25 36.9404 6.25 36.25C6.25 35.5596 5.69036 35 5 35C4.30964 35 3.75 35.5596 3.75 36.25C3.75 36.9404 4.30964 37.5 5 37.5Z" fill="#D7E6F0"/>
<path d="M20 38.75C21.3807 38.75 22.5 37.6307 22.5 36.25C22.5 34.8693 21.3807 33.75 20 33.75C18.6193 33.75 17.5 34.8693 17.5 36.25C17.5 37.6307 18.6193 38.75 20 38.75Z" fill="#555A6E"/>
<path d="M20 37.5C20.6904 37.5 21.25 36.9404 21.25 36.25C21.25 35.5596 20.6904 35 20 35C19.3096 35 18.75 35.5596 18.75 36.25C18.75 36.9404 19.3096 37.5 20 37.5Z" fill="#D7E6F0"/>
<path d="M6.25 28.75H3.75C3.40484 28.75 3.125 29.0298 3.125 29.375C3.125 29.7202 3.40484 30 3.75 30H6.25C6.59516 30 6.875 29.7202 6.875 29.375C6.875 29.0298 6.59516 28.75 6.25 28.75Z" fill="#23AAE6"/>
<path d="M6.25 31.25H3.75C3.40484 31.25 3.125 31.5298 3.125 31.875C3.125 32.2202 3.40484 32.5 3.75 32.5H6.25C6.59516 32.5 6.875 32.2202 6.875 31.875C6.875 31.5298 6.59516 31.25 6.25 31.25Z" fill="#23AAE6"/>
<path d="M29.0625 34.375H26.25V32.5H28.125C28.8154 32.5 29.375 33.0596 29.375 33.75V34.0625C29.375 34.2351 29.2351 34.375 29.0625 34.375Z" fill="#D7E6F0"/>
<path d="M35.9375 34.375H38.75V32.5H36.875C36.1846 32.5 35.625 33.0596 35.625 33.75V34.0625C35.625 34.2351 35.7649 34.375 35.9375 34.375Z" fill="#D7E6F0"/>
<path d="M23.2071 2.5H20.4105C19.7474 2.5 19.1116 2.76336 18.6427 3.23227L12.9419 8.93313C12.5481 9.32688 12.827 10.0001 13.3838 10.0001H18.7059C19.1239 10.0001 19.5141 9.79117 19.746 9.44344L23.7271 3.47172C24.0041 3.05633 23.7063 2.5 23.2071 2.5Z" fill="#FAA019"/>
<path d="M4.37494 10C4.37494 8.6193 5.49424 7.5 6.87494 7.5H33.7499C34.0951 7.5 34.3749 7.77984 34.3749 8.125V9.61375C34.3749 9.85047 34.2412 10.0669 34.0295 10.1727L29.5069 12.434C29.4201 12.4773 29.3244 12.5 29.2274 12.5H4.41026C3.73713 12.5 3.15799 11.9827 3.12643 11.3104C3.0926 10.5925 3.66455 10 4.37494 10Z" fill="#D7E6F0"/>
<path d="M34.0295 10.1727L29.5069 12.434C29.4201 12.4774 29.3244 12.5 29.2274 12.5H4.41026C3.73713 12.5 3.15799 11.9827 3.12643 11.3103C3.0926 10.5925 3.66455 10 4.37494 10H34.2403C34.1843 10.071 34.1133 10.1308 34.0295 10.1727Z" fill="#A5C3DC"/>
<path d="M8.125 9.375C8.125 9.72016 7.84516 10 7.5 10H4.375C4.375 9.54445 4.49742 9.11781 4.71031 8.75H7.5C7.84516 8.75 8.125 9.02984 8.125 9.375Z" fill="#555A6E"/>
<path d="M33.125 7.5V1.875C33.125 1.52984 32.8452 1.25 32.5 1.25H31.3327C30.8937 1.25 30.4868 1.48039 30.2609 1.85687L26.875 7.5H33.125Z" fill="#F06423"/>
<path d="M27.5 8.75H36.25C36.5952 8.75 36.875 9.02984 36.875 9.375C36.875 9.72016 36.5952 10 36.25 10H27.5C27.1548 10 26.875 9.72016 26.875 9.375C26.875 9.02984 27.1548 8.75 27.5 8.75Z" fill="#F06423"/>
<path d="M23.2071 17.5H20.4105C19.7474 17.5 19.1116 17.2366 18.6427 16.7677L12.9419 11.0668C12.5481 10.6731 12.827 9.99988 13.3838 9.99988H18.7059C19.1239 9.99988 19.5141 10.2088 19.746 10.5565L23.7271 16.5282C24.0041 16.9436 23.7063 17.5 23.2071 17.5Z" fill="#F06423"/>
<path d="M30.9375 5.9375C31.4553 5.9375 31.875 5.51777 31.875 5C31.875 4.48223 31.4553 4.0625 30.9375 4.0625C30.4197 4.0625 30 4.48223 30 5C30 5.51777 30.4197 5.9375 30.9375 5.9375Z" fill="#FAA019"/>
</svg>
