<svg width="15" height="15" viewBox="0 0 15 15" fill="none" xmlns="http://www.w3.org/2000/svg">
<path d="M14.3751 8.12486C14.5314 8.12486 14.6877 7.96856 14.6877 7.81226V5.93726C14.6877 5.40596 14.2815 4.99976 13.7502 4.99976H11.25V13.7499H13.7499C14.2812 13.7499 14.6874 13.3437 14.6874 12.8124V10.9374C14.6872 10.8545 14.6543 10.7751 14.5957 10.7165C14.5371 10.6579 14.4577 10.6249 14.3748 10.6248C14.0466 10.6197 13.7337 10.4857 13.5034 10.2519C13.2731 10.018 13.1441 9.703 13.1441 9.37481C13.1441 9.04661 13.2731 8.73158 13.5034 8.49773C13.7337 8.26387 14.0466 8.12994 14.3748 8.12486H14.3751Z" fill="white"/>
<path d="M14.1562 4.06257C14.3125 4.00017 14.4061 3.81267 14.3437 3.65637L13.7185 1.87497C13.5622 1.37487 12.9985 1.12497 12.5311 1.28127L3.65625 4.34367H13.6561C13.8044 4.22033 13.9738 4.12507 14.1562 4.06257Z" fill="white"/>
<path d="M0.3125 5.93762V7.81262C0.3125 8.00012 0.4376 8.12522 0.6251 8.12522C0.790875 8.12265 0.955505 8.15309 1.10941 8.21475C1.26331 8.27641 1.40341 8.36808 1.52155 8.4844C1.63969 8.60072 1.73351 8.73938 1.79755 8.89231C1.86159 9.04524 1.89457 9.20938 1.89457 9.37517C1.89457 9.54097 1.86159 9.70511 1.79755 9.85804C1.73351 10.011 1.63969 10.1496 1.52155 10.2659C1.40341 10.3823 1.26331 10.4739 1.10941 10.5356C0.955505 10.5973 0.790875 10.6277 0.6251 10.6251C0.4376 10.6251 0.3125 10.7502 0.3125 10.9377V12.8127C0.3125 13.344 0.7187 13.7502 1.25 13.7502H10.625V5.00012H1.25C0.7199 5.00012 0.3125 5.40632 0.3125 5.93762ZM4.0625 7.50002H5.9375C6.125 7.50002 6.2501 7.62512 6.2501 7.81262C6.2501 8.00012 6.125 8.12522 5.9375 8.12522H4.0625C3.875 8.12522 3.7499 8.00012 3.7499 7.81262C3.7499 7.62512 3.875 7.50002 4.0625 7.50002ZM4.0625 9.06242H8.1248C8.3123 9.06242 8.4374 9.18752 8.4374 9.37502C8.4374 9.56252 8.3123 9.68762 8.1248 9.68762H4.0625C3.875 9.68762 3.7499 9.56252 3.7499 9.37502C3.7499 9.18752 3.875 9.06242 4.0625 9.06242ZM4.0625 10.6248H8.1248C8.3123 10.6248 8.4374 10.7499 8.4374 10.9374C8.4374 11.1249 8.3123 11.25 8.1248 11.25H4.0625C3.875 11.25 3.7499 11.1249 3.7499 10.9374C3.7499 10.7499 3.875 10.6251 4.0625 10.6251V10.6248Z" fill="white"/>
</svg>
