<svg width="20" height="20" viewBox="0 0 20 20" fill="none" xmlns="http://www.w3.org/2000/svg">
<path d="M10.0572 10.347C12.6287 10.347 14.7307 8.24492 14.7307 5.67348C14.7307 3.10203 12.6287 1 10.0572 1C7.48578 1 5.38379 3.10203 5.38379 5.67348C5.38379 8.24492 7.48582 10.347 10.0572 10.347Z" fill="black" fill-opacity="0.54"/>
<path d="M18.0777 14.0813C17.9553 13.7751 17.792 13.4894 17.6084 13.2241C16.6696 11.8364 15.2206 10.918 13.588 10.6935C13.3839 10.6731 13.1594 10.7139 12.9961 10.8364C12.139 11.469 11.1186 11.7955 10.0574 11.7955C8.99611 11.7955 7.97572 11.469 7.11857 10.8364C6.95529 10.7139 6.73079 10.6527 6.52673 10.6935C4.89407 10.918 3.4247 11.8364 2.50634 13.2241C2.32267 13.4894 2.15939 13.7956 2.03696 14.0813C1.97575 14.2037 1.99614 14.3466 2.05735 14.4691C2.22064 14.7548 2.4247 15.0405 2.60837 15.2854C2.89407 15.6732 3.20021 16.0201 3.54716 16.3466C3.83286 16.6323 4.15939 16.8976 4.48595 17.1629C6.09818 18.367 8.03696 18.9996 10.037 18.9996C12.037 18.9996 13.9758 18.367 15.588 17.1629C15.9145 16.918 16.241 16.6323 16.5268 16.3466C16.8533 16.0201 17.1798 15.6731 17.4656 15.2854C17.6696 15.0201 17.8533 14.7548 18.0166 14.4691C18.1186 14.3466 18.139 14.2037 18.0777 14.0813Z" fill="black" fill-opacity="0.54"/>
</svg>
