<svg width="7" height="14" viewBox="0 0 7 14" fill="none" xmlns="http://www.w3.org/2000/svg">
<path d="M0.52162 13.073C0.218007 12.947 0.00391767 12.6338 0.000557526 12.3045C-0.00880287 12.0587 0.100402 11.8192 0.275369 11.6493C1.82488 10.0993 3.37558 8.55049 4.92461 7.00002C3.56375 5.63797 2.20169 4.27711 0.840593 2.91529C0.634665 2.70552 0.420335 2.50343 0.219687 2.28838C-0.0556049 1.99341 -0.0719256 1.50115 0.182725 1.18818C0.334892 0.988487 0.578022 0.869922 0.827153 0.855762H0.868435C1.10388 0.861281 1.32997 0.964966 1.4927 1.13393C3.23326 2.87377 4.97309 4.61456 6.71364 6.3544C6.81637 6.45832 6.90637 6.57833 6.95293 6.71825C7.03238 6.94602 7.01078 7.20715 6.89173 7.4174C6.82525 7.53741 6.72612 7.63437 6.6294 7.7299C4.96901 9.39005 3.30886 11.0502 1.64871 12.7103C1.51526 12.8424 1.3871 12.99 1.21093 13.0658C1.1046 13.1157 0.98748 13.1366 0.871075 13.1443H0.841553C0.732108 13.1366 0.622424 13.1174 0.52162 13.073Z" fill="#DC635B"/>
</svg>
